<?xml version="1.0" encoding="utf-8"?>
<!-- Generator: Adobe Illustrator 23.0.0, SVG Export Plug-In . SVG Version: 6.00 Build 0)  -->
<svg version="1.1" id="Layer_1" xmlns="http://www.w3.org/2000/svg" xmlns:xlink="http://www.w3.org/1999/xlink" x="0px" y="0px"
	 viewBox="0 0 165 155" style="enable-background:new 0 0 165 155;" xml:space="preserve">
<style type="text/css">
	.st0{fill:#46CCCC;}
	.st1{fill:#FFFFFF;}
</style>
<rect class="st0" width="165" height="155"/>
<path class="st1" d="M30.8,85.3c0.6,0,1.1-0.1,1.7-0.2c0.5-0.1,1-0.2,1.4-0.4v-3.6l-3.3,0.3c-0.7,0-1.4,0.2-2.1,0.6
	c-0.5,0.3-0.8,0.8-0.8,1.4c0,0.6,0.3,1.1,0.7,1.5C29.2,85.2,30,85.4,30.8,85.3 M30.5,67.4c1.5,0,3,0.2,4.5,0.5
	c1.2,0.3,2.4,0.8,3.5,1.5c0.9,0.7,1.7,1.5,2.2,2.6c0.5,1.2,0.8,2.4,0.8,3.7V86c0,0.7-0.2,1.4-0.7,1.9c-0.5,0.5-1,1-1.6,1.3
	c-2,1.2-4.8,1.8-8.3,1.8c-1.5,0-2.9-0.1-4.4-0.5c-1.2-0.3-2.3-0.7-3.3-1.4c-0.9-0.6-1.6-1.4-2.1-2.3c-0.5-1-0.8-2.1-0.8-3.3
	c-0.1-1.8,0.6-3.6,1.9-4.8c1.7-1.3,3.7-2,5.8-2.1l6-0.6v-0.3c0-0.8-0.4-1.6-1.2-1.9c-1.1-0.4-2.2-0.6-3.4-0.6
	c-1.1,0-2.3,0.1-3.4,0.4c-1,0.2-2,0.5-3,0.9c-0.4-0.3-0.8-0.8-1-1.3c-0.3-0.5-0.4-1.1-0.4-1.8c0-0.7,0.2-1.4,0.6-1.9
	c0.5-0.5,1.1-1,1.8-1.2c1-0.4,2.1-0.6,3.1-0.7C28.2,67.5,29.3,67.4,30.5,67.4"/>
<path class="st1" d="M50.6,90.2l-1.5,0.3c-0.7,0.1-1.3,0.2-2,0.2c-0.6,0-1.2,0-1.8-0.1c-0.5-0.1-0.9-0.2-1.3-0.5
	c-0.4-0.3-0.7-0.7-0.8-1.1c-0.2-0.6-0.4-1.2-0.3-1.9V68.4c0.3-0.1,0.8-0.2,1.5-0.3c0.7-0.1,1.3-0.2,2-0.2c0.6,0,1.2,0,1.8,0.1
	c0.5,0.1,0.9,0.3,1.3,0.6c0.4,0.3,0.7,0.7,0.8,1.1c0.2,0.6,0.3,1.2,0.3,1.8L50.6,90.2z M42.4,61.9c0-1.1,0.4-2.2,1.2-2.9
	c1.7-1.6,4.4-1.6,6.2,0c1.6,1.6,1.6,4.2,0,5.8c-1.7,1.6-4.4,1.6-6.2,0C42.8,64.1,42.4,63,42.4,61.9"/>
<path class="st1" d="M62.6,67.4c1.2,0,2.5,0.2,3.7,0.5c1.1,0.3,2.2,0.8,3.1,1.6c1-0.6,2-1.1,3.1-1.5c1.3-0.4,2.7-0.6,4.1-0.6
	c1.1,0,2.3,0.2,3.4,0.5c1.1,0.3,2.1,0.8,3,1.4c0.9,0.7,1.6,1.6,2,2.6c0.5,1.2,0.8,2.6,0.8,3.9v14.4c-0.5,0.1-1,0.2-1.4,0.3
	c-0.7,0.1-1.3,0.1-2,0.1c-0.6,0-1.2,0-1.8-0.1c-0.5-0.1-0.9-0.2-1.3-0.5c-0.4-0.3-0.7-0.7-0.8-1.1c-0.2-0.6-0.3-1.2-0.3-1.9V76.1
	c0.1-0.8-0.2-1.5-0.8-2c-0.6-0.4-1.3-0.7-2.1-0.6c-0.5,0-0.9,0.1-1.4,0.3c-0.4,0.1-0.8,0.4-1.1,0.6c0,0.1,0,0.2,0,0.3v15.5
	c-0.5,0.1-1,0.2-1.5,0.3c-0.7,0.1-1.3,0.1-2,0.1c-0.6,0-1.2,0-1.8-0.1c-0.5-0.1-0.9-0.2-1.3-0.5c-0.4-0.3-0.7-0.7-0.8-1.1
	C65.1,88.3,65,87.6,65,87V76.1c0.1-0.8-0.2-1.5-0.8-2c-0.6-0.4-1.3-0.6-2-0.6c-0.5,0-1,0.1-1.4,0.3c-0.3,0.1-0.7,0.3-1,0.5v16
	c-0.5,0.1-1,0.2-1.4,0.3c-0.7,0.1-1.3,0.1-2,0.1c-0.6,0-1.2,0-1.8-0.1c-0.5,0-1-0.2-1.4-0.5c-0.4-0.3-0.7-0.7-0.8-1.1
	C52,88.3,52,87.6,52,87V73.2c0-0.7,0.1-1.4,0.5-2c0.4-0.5,0.9-1,1.4-1.4c1.2-0.8,2.5-1.4,3.9-1.8C59.4,67.6,61,67.4,62.6,67.4"/>
<path class="st1" d="M97.8,84.9c1.2,0,2.4-0.5,3.2-1.4c0.9-1.3,1.3-2.8,1.2-4.3c0.1-1.5-0.3-3-1.2-4.3c-0.8-0.9-2-1.5-3.2-1.4
	c-0.5,0-1.1,0.1-1.6,0.2c-0.5,0.1-1,0.3-1.4,0.6v10c0.4,0.2,0.8,0.4,1.2,0.5C96.6,84.9,97.2,85,97.8,84.9 M87.1,60.6
	c0.5-0.1,1-0.2,1.5-0.3c0.7-0.1,1.3-0.2,2-0.2c0.6,0,1.2,0,1.8,0.1c0.5,0.1,1,0.3,1.3,0.5c0.4,0.3,0.7,0.7,0.8,1.1
	c0.2,0.6,0.3,1.2,0.3,1.8v4.5c0.7-0.3,1.4-0.5,2.2-0.6c0.7-0.1,1.5-0.2,2.3-0.2c1.4,0,2.8,0.3,4.2,0.8c1.3,0.5,2.5,1.3,3.5,2.3
	c1,1,1.8,2.3,2.4,3.7c0.6,1.6,0.9,3.3,0.9,5.1c0,1.8-0.3,3.5-0.9,5.2c-0.5,1.4-1.4,2.6-2.5,3.6c-1.1,1-2.5,1.8-3.9,2.2
	c-1.6,0.5-3.4,0.8-5.1,0.8c-1.7,0-3.5-0.2-5.1-0.7c-1.3-0.4-2.5-1-3.6-1.8c-1.3-0.8-2-2.2-2-3.7L87.1,60.6z"/>
<path class="st1" d="M119.4,90.2c-0.5,0.1-1,0.2-1.4,0.3c-0.7,0.1-1.3,0.1-2,0.1c-0.6,0-1.2,0-1.8-0.1c-0.5-0.1-1-0.3-1.3-0.6
	c-0.4-0.3-0.7-0.7-0.8-1.1c-0.2-0.6-0.3-1.2-0.3-1.8V73.3c0-0.6,0.1-1.2,0.4-1.8c0.3-0.5,0.7-1,1.1-1.3c0.6-0.4,1.2-0.8,1.8-1.1
	c0.7-0.3,1.5-0.6,2.3-0.8c0.8-0.3,1.7-0.4,2.6-0.6c0.9-0.1,1.8-0.2,2.7-0.2c1.2-0.1,2.4,0.2,3.5,0.8c0.9,0.6,1.4,1.7,1.3,2.8
	c0,0.4-0.1,0.9-0.2,1.3c-0.1,0.4-0.3,0.8-0.5,1.1c-0.6,0-1.3,0-2,0.1s-1.3,0.2-2,0.3s-1.2,0.3-1.8,0.4c-0.5,0.1-1,0.3-1.4,0.5
	L119.4,90.2z"/>
<path class="st1" d="M136.9,85.3c0.6,0,1.1-0.1,1.7-0.2c0.5-0.1,1-0.2,1.4-0.4v-3.6l-3.3,0.3c-0.7,0-1.4,0.2-2.1,0.6
	c-0.5,0.3-0.8,0.8-0.8,1.4c0,0.6,0.3,1.1,0.7,1.5C135.2,85.2,136.1,85.4,136.9,85.3 M136.6,67.4c1.5,0,3,0.2,4.5,0.5
	c1.2,0.3,2.4,0.8,3.5,1.5c0.9,0.7,1.7,1.6,2.2,2.6c0.5,1.2,0.8,2.4,0.8,3.7V86c0,0.7-0.2,1.4-0.7,1.9c-0.5,0.5-1,1-1.6,1.3
	c-2,1.2-4.8,1.8-8.4,1.8c-1.5,0-2.9-0.1-4.4-0.5c-1.2-0.3-2.3-0.7-3.3-1.4c-0.9-0.6-1.6-1.4-2.1-2.3c-0.5-1-0.8-2.1-0.8-3.3
	c-0.1-1.8,0.6-3.6,1.9-4.8c1.7-1.3,3.7-2,5.8-2.1l6-0.6v-0.3c0-0.8-0.4-1.6-1.2-1.9c-1.1-0.4-2.2-0.6-3.4-0.6
	c-1.1,0-2.3,0.1-3.4,0.4c-1,0.2-2,0.5-3,0.9c-0.4-0.3-0.8-0.8-1-1.3c-0.3-0.5-0.4-1.1-0.4-1.8c0-0.7,0.2-1.4,0.6-1.9
	c0.5-0.5,1.1-1,1.7-1.2c1-0.4,2.1-0.6,3.1-0.7C134.2,67.5,135.4,67.4,136.6,67.4"/>
<path class="st1" d="M24.1,96.7h57.8c2.1,0,3.9,1.7,3.9,3.9v0c0,2.1-1.7,3.9-3.9,3.9H24.1c-2.1,0-3.9-1.7-3.9-3.9v0
	C20.3,98.4,22,96.7,24.1,96.7z"/>
</svg>
